<svg width="121" height="120" viewBox="0 0 121 120" fill="none" xmlns="http://www.w3.org/2000/svg">
<path fill-rule="evenodd" clip-rule="evenodd" d="M60.3788 120C93.5159 120 120.379 93.1371 120.379 60C120.379 57.7115 120.251 55.4529 120.001 53.2311L106.399 56.8757L97.363 72.5272L97.3626 72.527L97.3352 72.5751L97.3153 72.6098C94.7598 77.036 89.1 78.5526 84.6738 75.9971C80.2476 73.4416 78.7311 67.7819 81.2866 63.3557L81.3042 63.3252L81.3347 63.2733L81.3343 63.273L94.1184 41.1302L94.1535 41.1505L94.1363 41.086L115.146 35.4566C105.765 14.5564 84.7718 0 60.3788 0C27.2418 0 0.378845 26.8629 0.378845 60C0.378845 93.1371 27.2418 120 60.3788 120ZM27.5196 77.6744L5.33871 83.6178C4.23071 81.0229 3.29248 78.3182 2.54101 75.5136C1.67061 72.2653 1.08418 69.0077 0.76651 65.7673L15.2565 61.8848L24.2929 46.2333L24.2933 46.2335C24.3089 46.2058 24.3247 46.1782 24.3406 46.1506C26.8961 41.7244 32.5559 40.2079 36.9821 42.7634C41.4083 45.3188 42.9248 50.9786 40.3693 55.4048L40.3404 55.4545L40.3212 55.4872L40.3216 55.4874L27.5375 77.6302L27.5024 77.6099L27.5196 77.6744ZM39.7428 95.9618C35.3166 93.4063 33.8 87.7466 36.3555 83.3204L69.294 26.2692C71.8495 21.843 77.5092 20.3265 81.9354 22.882C86.3617 25.4374 87.8782 31.0972 85.3227 35.5234L52.3842 92.5745C49.8288 97.0007 44.169 98.5173 39.7428 95.9618Z" fill="black"/>
</svg>
