<svg width="174" height="1140" viewBox="0 0 174 1140" fill="none" xmlns="http://www.w3.org/2000/svg">
<path fill-rule="evenodd" clip-rule="evenodd" d="M86.3788 140C119.516 140 146.379 113.137 146.379 80C146.379 77.7115 146.251 75.4529 146.001 73.2311L132.399 76.8757L123.363 92.5272L123.363 92.527L123.335 92.5751L123.315 92.6098C120.76 97.0361 115.1 98.5526 110.674 95.9971C106.248 93.4416 104.731 87.7819 107.287 83.3557L107.304 83.3252L107.335 83.2733L107.334 83.273L120.118 61.1303L120.154 61.1506L120.136 61.086L141.146 55.4566C131.765 34.5564 110.772 20 86.3788 20C53.2418 20 26.3788 46.8629 26.3788 80C26.3788 113.137 53.2418 140 86.3788 140ZM53.5196 97.6745L31.3387 103.618C30.2307 101.023 29.2925 98.3182 28.541 95.5136C27.6706 92.2653 27.0842 89.0077 26.7665 85.7673L41.2565 81.8848L50.2929 66.2333L50.2933 66.2335C50.3089 66.2058 50.3247 66.1782 50.3406 66.1506C52.8961 61.7244 58.5559 60.2079 62.9821 62.7634C67.4083 65.3188 68.9248 70.9786 66.3693 75.4048L66.3404 75.4545L66.3212 75.4872L66.3216 75.4874L53.5375 97.6302L53.5024 97.6099L53.5196 97.6745ZM65.7428 115.962C61.3166 113.406 59.8 107.747 62.3555 103.32L95.294 46.2692C97.8495 41.843 103.509 40.3265 107.935 42.882C112.362 45.4374 113.878 51.0972 111.323 55.5234L78.3842 112.575C75.8288 117.001 70.169 118.517 65.7428 115.962Z" fill="#1ED760"/>
<circle cx="86.7578" cy="220" r="60" fill="#1ED760"/>
<path fill-rule="evenodd" clip-rule="evenodd" d="M146.499 213.199C146.164 210.29 145.612 207.369 144.831 204.455C143.99 201.317 142.915 198.303 141.63 195.428L120.515 201.086L120.532 201.151L120.497 201.13L107.713 223.273L107.714 223.273C107.703 223.29 107.693 223.308 107.683 223.325C107.677 223.335 107.671 223.345 107.665 223.356C105.11 227.782 106.627 233.442 111.053 235.997C115.479 238.553 121.139 237.036 123.694 232.61C123.701 232.598 123.708 232.587 123.714 232.575C123.723 232.559 123.732 232.543 123.741 232.527L123.742 232.527L132.778 216.876L146.499 213.199ZM31.7176 243.618L53.8986 237.674L53.8813 237.61L53.9164 237.63L66.7006 215.487L66.7002 215.487C66.7066 215.476 66.713 215.465 66.7194 215.454C66.729 215.438 66.7387 215.421 66.7483 215.405C69.3037 210.979 67.7872 205.319 63.361 202.763C58.9348 200.208 53.275 201.724 50.7196 206.151C50.7036 206.178 50.6879 206.206 50.6723 206.233L50.6718 206.233L41.6354 221.885L27.1454 225.767C27.4631 229.008 28.0495 232.265 28.9199 235.514C29.6714 238.318 30.6096 241.023 31.7176 243.618ZM62.7344 243.32C60.179 247.747 61.6955 253.406 66.1217 255.962C70.5479 258.517 76.2077 257.001 78.7632 252.574L111.702 195.523C114.257 191.097 112.741 185.437 108.314 182.882C103.888 180.326 98.2284 181.843 95.6729 186.269L62.7344 243.32Z" fill="black"/>
<circle cx="86.3788" cy="360" r="60" fill="#1ED760"/>
<path fill-rule="evenodd" clip-rule="evenodd" d="M146.12 353.199C145.785 350.29 145.233 347.369 144.452 344.455C143.611 341.317 142.536 338.303 141.251 335.428L120.136 341.086L120.154 341.151L120.118 341.13L107.334 363.273L107.335 363.273C107.325 363.29 107.314 363.308 107.304 363.325C107.298 363.335 107.292 363.345 107.287 363.356C104.731 367.782 106.248 373.442 110.674 375.997C115.1 378.553 120.76 377.036 123.315 372.61C123.322 372.598 123.329 372.587 123.335 372.575C123.344 372.559 123.354 372.543 123.363 372.527L123.363 372.527L132.399 356.876L146.12 353.199ZM31.3387 383.618L53.5197 377.674L53.5024 377.61L53.5375 377.63L66.3217 355.487L66.3212 355.487C66.3277 355.476 66.3341 355.465 66.3405 355.454C66.3501 355.438 66.3598 355.421 66.3694 355.405C68.9248 350.979 67.4083 345.319 62.9821 342.763C58.5559 340.208 52.8961 341.724 50.3406 346.151C50.3247 346.178 50.309 346.206 50.2934 346.233L50.2929 346.233L41.2565 361.885L26.7665 365.767C27.0842 369.008 27.6706 372.265 28.541 375.514C29.2925 378.318 30.2307 381.023 31.3387 383.618ZM62.3555 383.32C59.8001 387.747 61.3166 393.406 65.7428 395.962C70.169 398.517 75.8288 397.001 78.3842 392.574L111.323 335.523C113.878 331.097 112.362 325.437 107.935 322.882C103.509 320.326 97.8495 321.843 95.294 326.269L62.3555 383.32Z" fill="white"/>
<circle cx="86.3788" cy="500" r="60" fill="black"/>
<path fill-rule="evenodd" clip-rule="evenodd" d="M146.12 493.199C145.785 490.29 145.233 487.369 144.452 484.455C143.611 481.317 142.536 478.303 141.251 475.428L120.136 481.086L120.154 481.151L120.118 481.13L107.334 503.273L107.335 503.273C107.325 503.29 107.314 503.308 107.304 503.325C107.298 503.335 107.292 503.345 107.287 503.356C104.731 507.782 106.248 513.442 110.674 515.997C115.1 518.553 120.76 517.036 123.315 512.61C123.322 512.598 123.329 512.587 123.335 512.575C123.344 512.559 123.354 512.543 123.363 512.527L123.363 512.527L132.399 496.876L146.12 493.199ZM31.3387 523.618L53.5197 517.674L53.5024 517.61L53.5375 517.63L66.3217 495.487L66.3212 495.487C66.3277 495.476 66.3341 495.465 66.3405 495.454C66.3501 495.438 66.3598 495.421 66.3694 495.405C68.9248 490.979 67.4083 485.319 62.9821 482.763C58.5559 480.208 52.8961 481.724 50.3406 486.151C50.3247 486.178 50.309 486.206 50.2934 486.233L50.2929 486.233L41.2565 501.885L26.7665 505.767C27.0842 509.008 27.6706 512.265 28.541 515.514C29.2925 518.318 30.2307 521.023 31.3387 523.618ZM62.3555 523.32C59.8001 527.747 61.3166 533.406 65.7428 535.962C70.169 538.517 75.8288 537.001 78.3842 532.574L111.323 475.523C113.878 471.097 112.362 465.437 107.935 462.882C103.509 460.326 97.8495 461.843 95.294 466.269L62.3555 523.32Z" fill="white"/>
<path d="M146.758 780C146.758 813.137 119.895 840 86.7578 840C53.6207 840 26.7578 813.137 26.7578 780C26.7578 746.863 53.6207 720 86.7578 720C119.895 720 146.758 746.863 146.758 780Z" fill="black"/>
<path fill-rule="evenodd" clip-rule="evenodd" d="M146.499 773.199C146.164 770.29 145.612 767.369 144.831 764.455C143.99 761.317 142.915 758.303 141.63 755.428L120.515 761.086L120.532 761.151L120.497 761.13L107.713 783.273L107.714 783.273C107.703 783.291 107.693 783.308 107.683 783.325C107.677 783.335 107.671 783.345 107.665 783.356C105.11 787.782 106.627 793.442 111.053 795.997C115.479 798.553 121.139 797.036 123.694 792.61C123.701 792.598 123.708 792.587 123.714 792.575C123.723 792.559 123.732 792.543 123.741 792.527L123.742 792.527L132.778 776.876L146.499 773.199ZM31.7176 803.618L53.8986 797.674L53.8813 797.61L53.9164 797.63L66.7006 775.487L66.7002 775.487C66.7066 775.476 66.713 775.465 66.7194 775.455C66.729 775.438 66.7387 775.421 66.7483 775.405C69.3037 770.979 67.7872 765.319 63.361 762.763C58.9348 760.208 53.275 761.724 50.7196 766.151C50.7036 766.178 50.6879 766.206 50.6723 766.233L50.6718 766.233L41.6354 781.885L27.1454 785.767C27.4631 789.008 28.0495 792.265 28.9199 795.514C29.6714 798.318 30.6096 801.023 31.7176 803.618ZM62.7344 803.32C60.179 807.747 61.6955 813.406 66.1217 815.962C70.5479 818.517 76.2077 817.001 78.7632 812.575L111.702 755.523C114.257 751.097 112.741 745.437 108.314 742.882C103.888 740.326 98.2284 741.843 95.6729 746.269L62.7344 803.32Z" fill="#1ED760"/>
<circle cx="85.7578" cy="920" r="60" fill="white"/>
<path fill-rule="evenodd" clip-rule="evenodd" d="M145.499 913.199C145.164 910.29 144.612 907.369 143.831 904.455C142.99 901.317 141.915 898.303 140.63 895.428L119.515 901.086L119.532 901.151L119.497 901.13L106.713 923.273L106.714 923.273C106.703 923.291 106.693 923.308 106.683 923.325C106.677 923.335 106.671 923.345 106.665 923.356C104.11 927.782 105.627 933.442 110.053 935.997C114.479 938.553 120.139 937.036 122.694 932.61C122.701 932.598 122.708 932.587 122.714 932.575C122.723 932.559 122.732 932.543 122.741 932.527L122.742 932.527L131.778 916.876L145.499 913.199ZM30.7176 943.618L52.8986 937.674L52.8813 937.61L52.9164 937.63L65.7006 915.487L65.7002 915.487C65.7066 915.476 65.713 915.465 65.7194 915.455C65.729 915.438 65.7387 915.421 65.7483 915.405C68.3037 910.979 66.7872 905.319 62.361 902.763C57.9348 900.208 52.275 901.724 49.7196 906.151C49.7036 906.178 49.6879 906.206 49.6723 906.233L49.6718 906.233L40.6354 921.885L26.1454 925.767C26.4631 929.008 27.0495 932.265 27.9199 935.514C28.6714 938.318 29.6096 941.023 30.7176 943.618ZM61.7344 943.32C59.179 947.747 60.6955 953.406 65.1217 955.962C69.5479 958.517 75.2077 957.001 77.7632 952.575L110.702 895.523C113.257 891.097 111.741 885.437 107.314 882.882C102.888 880.326 97.2284 881.843 94.6729 886.269L61.7344 943.32Z" fill="black"/>
<path fill-rule="evenodd" clip-rule="evenodd" d="M86.3788 700C119.516 700 146.379 673.137 146.379 640C146.379 637.712 146.251 635.453 146.001 633.231L132.399 636.876L123.363 652.527L123.363 652.527L123.335 652.575L123.315 652.61C120.76 657.036 115.1 658.553 110.674 655.997C106.248 653.442 104.731 647.782 107.287 643.356L107.304 643.325L107.335 643.273L107.334 643.273L120.118 621.13L120.154 621.151L120.136 621.086L141.146 615.457C131.765 594.556 110.772 580 86.3788 580C53.2418 580 26.3788 606.863 26.3788 640C26.3788 673.137 53.2418 700 86.3788 700ZM53.5196 657.674L31.3387 663.618C30.2307 661.023 29.2925 658.318 28.541 655.514C27.6706 652.265 27.0842 649.008 26.7665 645.767L41.2565 641.885L50.2929 626.233L50.2933 626.233C50.3089 626.206 50.3247 626.178 50.3406 626.151C52.8961 621.724 58.5559 620.208 62.9821 622.763C67.4083 625.319 68.9248 630.979 66.3693 635.405L66.3404 635.455L66.3212 635.487L66.3216 635.487L53.5375 657.63L53.5024 657.61L53.5196 657.674ZM65.7428 675.962C61.3166 673.406 59.8 667.747 62.3555 663.32L95.294 606.269C97.8495 601.843 103.509 600.326 107.935 602.882C112.362 605.437 113.878 611.097 111.323 615.523L78.3842 672.575C75.8288 677.001 70.169 678.517 65.7428 675.962Z" fill="black"/>
<path fill-rule="evenodd" clip-rule="evenodd" d="M85.7578 1120C118.895 1120 145.758 1093.14 145.758 1060C145.758 1057.71 145.63 1055.45 145.38 1053.23L131.778 1056.88L122.742 1072.53L122.741 1072.53L122.714 1072.58L122.694 1072.61C120.139 1077.04 114.479 1078.55 110.053 1076C105.627 1073.44 104.11 1067.78 106.665 1063.36L106.683 1063.33L106.714 1063.27L106.713 1063.27L119.497 1041.13L119.532 1041.15L119.515 1041.09L140.525 1035.46C131.144 1014.56 110.151 1000 85.7578 1000C52.6207 1000 25.7578 1026.86 25.7578 1060C25.7578 1093.14 52.6207 1120 85.7578 1120ZM52.8986 1077.67L30.7176 1083.62C29.6096 1081.02 28.6714 1078.32 27.9199 1075.51C27.0495 1072.27 26.4631 1069.01 26.1454 1065.77L40.6354 1061.88L49.6718 1046.23L49.6722 1046.23C49.6878 1046.21 49.7036 1046.18 49.7195 1046.15C52.275 1041.72 57.9348 1040.21 62.361 1042.76C66.7872 1045.32 68.3037 1050.98 65.7482 1055.4L65.7193 1055.45L65.7001 1055.49L65.7005 1055.49L52.9164 1077.63L52.8813 1077.61L52.8986 1077.67ZM65.1217 1095.96C60.6955 1093.41 59.1789 1087.75 61.7344 1083.32L94.6729 1026.27C97.2284 1021.84 102.888 1020.33 107.314 1022.88C111.741 1025.44 113.257 1031.1 110.702 1035.52L77.7631 1092.57C75.2077 1097 69.5479 1098.52 65.1217 1095.96Z" fill="white"/>
<rect x="0.5" y="0.5" width="172.137" height="1139" rx="4.5" stroke="#9747FF" stroke-dasharray="10 5"/>
</svg>
