<svg width="133" height="120" viewBox="0 0 133 120" fill="none" xmlns="http://www.w3.org/2000/svg">
<path fill-rule="evenodd" clip-rule="evenodd" d="M66.3788 120C99.5159 120 126.379 93.1371 126.379 60C126.379 57.7115 126.251 55.4529 126.001 53.2311L112.399 56.8757L103.363 72.5272L103.363 72.527L103.335 72.5751L103.315 72.6098C100.76 77.036 95.1 78.5526 90.6738 75.9971C86.2476 73.4416 84.7311 67.7819 87.2866 63.3557L87.3042 63.3252L87.3347 63.2733L87.3343 63.273L100.118 41.1302L100.154 41.1505L100.136 41.086L121.146 35.4566C111.765 14.5564 90.7718 0 66.3788 0C33.2418 0 6.37885 26.8629 6.37885 60C6.37885 93.1371 33.2418 120 66.3788 120ZM33.5196 77.6744L11.3387 83.6178C10.2307 81.0229 9.29248 78.3182 8.54101 75.5136C7.67061 72.2653 7.08418 69.0077 6.76651 65.7673L21.2565 61.8848L30.2929 46.2333L30.2933 46.2335C30.3089 46.2058 30.3247 46.1782 30.3406 46.1506C32.8961 41.7244 38.5559 40.2079 42.9821 42.7634C47.4083 45.3188 48.9248 50.9786 46.3693 55.4048L46.3404 55.4545L46.3212 55.4872L46.3216 55.4874L33.5375 77.6302L33.5024 77.6099L33.5196 77.6744ZM45.7428 95.9618C41.3166 93.4063 39.8 87.7466 42.3555 83.3204L75.294 26.2692C77.8495 21.843 83.5092 20.3265 87.9354 22.882C92.3617 25.4374 93.8782 31.0972 91.3227 35.5234L58.3842 92.5745C55.8288 97.0007 50.169 98.5173 45.7428 95.9618Z" fill="black"/>
</svg>
